<svg xmlns="http://www.w3.org/2000/svg" viewBox="0 0 26 40"><path fill="#FFBD00" fill-rule="evenodd" d="M25.33,8.67A13,13,0,0,0,7.71,1.17,13.26,13.26,0,0,0,1.56,19.49C3.17,22.58,5,25.54,6.7,28.63c2,3.57,4.12,7.2,6.45,11.37a15.29,15.29,0,0,1,.76-1.45c3.77-6.68,7-12.59,10.42-19a13.86,13.86,0,0,0,1-10.85Z"/><path fill="#F5FFC1" fill-rule="evenodd" d="M13,31.31h0C6.26,25.42.86,19.82.86,13A12.21,12.21,0,0,1,13,.73,12.21,12.21,0,0,1,25.14,13c0,6.8-4.36,10.85-12.14,18.29Z"/><polygon fill="#F5FFC1" stroke="#1c1c1c" stroke-miterlimit="10" points="4.98 20.53 5.79 14.29 7.6 12.76 8.74 7.97 10.48 5.76 13.51 4.71 16 5.39 18.04 10.51 19.08 11.16 20.94 20.53 4.98 20.53"/><polygon stroke="#1c1c1c" fill="none" points="11.95 12.88 11.38 13.3 10.92 13.56 10.03 15.53 10.03 19.45 10.3 20.53 15.97 20.53 15.97 17.5 13.7 15.21 13.01 13.54 12.12 12.95 11.95 12.88"/></svg>