<svg xmlns="http://www.w3.org/2000/svg" viewBox="0 0 26 40"><path fill="#737371" fill-rule="evenodd" d="M25.33 8.67a13 13 0 0 0-17.62-7.5 13.26 13.26 0 0 0-6.15 18.32C3.17 22.58 5 25.54 6.7 28.63c2 3.57 4.12 7.2 6.45 11.37a15.29 15.29 0 0 1 .76-1.45c3.77-6.68 7-12.59 10.42-19a13.86 13.86 0 0 0 1-10.85z"/><path fill="#eceded" fill-rule="evenodd" d="M13 31.31C6.26 25.42.86 19.82.86 13A12.21 12.21 0 0 1 13 .73 12.21 12.21 0 0 1 25.14 13c0 6.8-4.36 10.85-12.14 18.29z"/><path fill="#1c1c1c" d="M18.51 4.71l-2.06.61 1 2.76 2-.58zm-3.33 1l-2.7.79.06.11.52 1.39.46 1.22 2.7-.79zm-3.93 1.1l-2.39.69 1 2.77 2.38-.7L11.68 8zm-3.62 1l-2 .58.92 2.8 2.06-.62zm-1.06 3.42v8.37a.92.92 0 0 0 .92.93h11.94a.92.92 0 0 0 .92-.93v-8.37zm1.84 1.86h10.1v2.79H8.41z"/></svg>