<svg xmlns="http://www.w3.org/2000/svg" viewBox="0 0 26 40"><path fill="#FF6B06" fill-rule="evenodd" d="M25.33,8.67A13,13,0,0,0,7.71,1.17,13.26,13.26,0,0,0,1.56,19.49C3.17,22.58,5,25.54,6.7,28.63c2,3.57,4.12,7.2,6.45,11.37a15.29,15.29,0,0,1,.76-1.45c3.77-6.68,7-12.59,10.42-19a13.86,13.86,0,0,0,1-10.85Z"/><path fill="#FFE6BD" fill-rule="evenodd" d="M13,31.31h0C6.26,25.42.86,19.82.86,13A12.21,12.21,0,0,1,13,.73,12.21,12.21,0,0,1,25.14,13c0,6.8-4.36,10.85-12.14,18.29Z"/><path fill="#1c1c1c" d="M9.88 4.71v1.58h.78v2.13A5.59 5.59 0 0 0 9 9.78l.85 1.58h3.44l-1.41 2.37 1.17.94.07 3.17-.92-2.7-2-1 1.49-1.9-2.59.24-1-1.36a4.78 4.78 0 0 0-.54 2.3 5.3 5.3 0 0 0 1.14 3.4 6.19 6.19 0 0 1 1.18 3.71h6.24v-.07a6.44 6.44 0 0 1 1.18-3.74 5.71 5.71 0 0 0 1.17-3.38 5.42 5.42 0 0 0-3.13-4.92V6.29h.78V4.71z"/></svg>