<svg xmlns="http://www.w3.org/2000/svg" viewBox="0 0 26 40"><path fill="#737371" fill-rule="evenodd" d="M25.33 8.67a13 13 0 0 0-17.62-7.5 13.26 13.26 0 0 0-6.15 18.32C3.17 22.58 5 25.54 6.7 28.63c2 3.57 4.12 7.2 6.45 11.37a15.29 15.29 0 0 1 .76-1.45c3.77-6.68 7-12.59 10.42-19a13.86 13.86 0 0 0 1-10.85z"/><path fill="#eceded" fill-rule="evenodd" d="M13 31.31C6.26 25.42.86 19.82.86 13A12.21 12.21 0 0 1 13 .73 12.21 12.21 0 0 1 25.14 13c0 6.8-4.36 10.85-12.14 18.29z"/><path d="M20.81 11.63V5.37a.62.62 0 0 0-.65-.66h-2.6a.62.62 0 0 0-.65.66V6H15v-.63a.62.62 0 0 0-.65-.66H11.7a.62.62 0 0 0-.65.66V6h-2v-.63a.62.62 0 0 0-.65-.66H5.84a.62.62 0 0 0-.65.66v6.26L6.49 13v6.26h-.65a.62.62 0 0 0-.65.66v.66h15.62v-.66a.62.62 0 0 0-.65-.66h-.65V13zm-9.76 7.58v-.66H15v.66zM15 15.92v.66h-3.9v-.66zm-3.77-.66a1.91 1.91 0 0 1 3.64 0zm3.77 2v.65h-3.9v-.65zm3.26-4.62v6.59H15.6v-3.31a2.6 2.6 0 1 0-5.2 0v3.29H7.79v-6.59l-1.3-1.32V6h1.3v1.35h4.56V6h1.3v1.35h4.56V6h1.3v5.3z" class="cls-2"/><path d="M9.75 12h2.6V9.33h-2.6zm.65-2h1.3v1.3h-1.3zM13.65 12h2.6V9.33h-2.6zm.65-2h1.3v1.3h-1.3z" class="cls-2"/></svg>