<svg xmlns="http://www.w3.org/2000/svg" viewBox="0 0 26 40"><path fill="#2F7045" fill-rule="evenodd" d="M25.33 8.67a13 13 0 0 0-17.62-7.5 13.26 13.26 0 0 0-6.15 18.32C3.17 22.58 5 25.54 6.7 28.63c2 3.57 4.12 7.2 6.45 11.37a15.29 15.29 0 0 1 .76-1.45c3.77-6.68 7-12.59 10.42-19a13.86 13.86 0 0 0 1-10.85z"/><path fill="#D9FFE8" fill-rule="evenodd" d="M13 31.31C6.26 25.42.86 19.82.86 13A12.21 12.21 0 0 1 13 .73 12.21 12.21 0 0 1 25.14 13c0 6.8-4.36 10.85-12.14 18.29z"/><path stroke="#1c1c1c" stroke-width="0.5" d="M20.63 20.14h-4.28l-.49-9h.3a.2.2 0 0 0 .19-.2V9.36a.19.19 0 0 0-.19-.19h-.7V7.42h.2a.21.21 0 0 0 .15-.07.22.22 0 0 0 0-.16l-.13-1a1.84 1.84 0 0 0-1.8-1.52h-1.79a1.84 1.84 0 0 0-1.8 1.53l-.13 1a.22.22 0 0 0 .05.16.21.21 0 0 0 .15.07h.2v1.74h-.7a.19.19 0 0 0-.19.19v1.54a.2.2 0 0 0 .19.2h.3l-.49 9H5.42a.19.19 0 0 0-.2.19.2.2 0 0 0 .2.2h15.21a.2.2 0 0 0 .2-.2.19.19 0 0 0-.2-.15zM10.67 6.3a1.45 1.45 0 0 1 1.42-1.19h1.84a1.45 1.45 0 0 1 1.42 1.18l.09.73h-4.86zm4.4 1.12v1.75H11V7.42zm-5 3.28V9.56H16v1.14zm5.5 2.11l.08 1.46h-5.27l.08-1.46zm-5.08-.4l.07-1.31h4.92l.07 1.31zm5.18 2.25l.08 1.47h-5.47l.08-1.47zm.1 1.86l.07 1.48h-5.66l.08-1.47zm-5.7 3.62l.1-1.76h5.7l.1 1.76z"/><path stroke="#1c1c1c" stroke-width="0.5" d="M5.3 6.25l4.2 1.51h.06a.21.21 0 0 0 .19-.13.21.21 0 0 0-.12-.26l-4.2-1.49a.2.2 0 0 0-.25.12.21.21 0 0 0 .12.25zM5.43 10.42l4.2-1.51a.21.21 0 0 0 .12-.25.19.19 0 0 0-.25-.12l-4.2 1.51a.2.2 0 0 0 .07.38zM16.33 8.91l4.2 1.51h.07a.19.19 0 0 0 .18-.13.2.2 0 0 0-.12-.25l-4.2-1.51a.18.18 0 0 0-.24.12.19.19 0 0 0 .11.26zM16.4 7.78h.06l4.2-1.51a.2.2 0 0 0 .12-.27.19.19 0 0 0-.25-.12l-4.2 1.51a.19.19 0 0 0-.11.25.18.18 0 0 0 .18.14z"/></svg>