<svg xmlns="http://www.w3.org/2000/svg" viewBox="0 0 26 40"><path fill="#FF6B06" fill-rule="evenodd" d="M25.33,8.67A13,13,0,0,0,7.71,1.17,13.26,13.26,0,0,0,1.56,19.49C3.17,22.58,5,25.54,6.7,28.63c2,3.57,4.12,7.2,6.45,11.37a15.29,15.29,0,0,1,.76-1.45c3.77-6.68,7-12.59,10.42-19a13.86,13.86,0,0,0,1-10.85Z"/><path fill="#FFE6BD" fill-rule="evenodd" d="M13,31.31h0C6.26,25.42.86,19.82.86,13A12.21,12.21,0,0,1,13,.73,12.21,12.21,0,0,1,25.14,13c0,6.8-4.36,10.85-12.14,18.29Z"/><path fill="#1c1c1c" d="M14.61 19.86l-.52-13.41-1.02-1.74h-.04l-1.02 1.74-.52 13.41H9.65v.67h6.7v-.67h-1.74z"/></svg>