<svg xmlns="http://www.w3.org/2000/svg" viewBox="0 0 26 40"><path fill="#FF6B06" fill-rule="evenodd" d="M25.33,8.67A13,13,0,0,0,7.71,1.17,13.26,13.26,0,0,0,1.56,19.49C3.17,22.58,5,25.54,6.7,28.63c2,3.57,4.12,7.2,6.45,11.37a15.29,15.29,0,0,1,.76-1.45c3.77-6.68,7-12.59,10.42-19a13.86,13.86,0,0,0,1-10.85Z"/><path fill="#FFE6BD" fill-rule="evenodd" d="M13,31.31h0C6.26,25.42.86,19.82.86,13A12.21,12.21,0,0,1,13,.73,12.21,12.21,0,0,1,25.14,13c0,6.8-4.36,10.85-12.14,18.29Z"/><path fill="#1c1c1c" d="M13.56 9.71H5A.37.37 0 0 1 4.83 9l7.58-3.62a1.42 1.42 0 0 1 1.24 0L21.23 9a.37.37 0 0 1-.16.7zM6.1 17.6V9.88M19.9 9.88v7.72M21.11 20H5a.55.55 0 0 1-.5-.76l.45-1.11a.54.54 0 0 1 .5-.34h15.21a.54.54 0 0 1 .5.34l.46 1.11a.56.56 0 0 1-.51.76zM8.28 17.62v-5.33a1.1 1.1 0 0 1 1.09-1.11 1.1 1.1 0 0 1 1.09 1.11v5.33M15.54 17.62v-5.33a1.1 1.1 0 0 1 1.09-1.11 1.1 1.1 0 0 1 1.09 1.11v5.33M11.91 17.62v-5.33A1.1 1.1 0 0 1 13 11.18a1.1 1.1 0 0 1 1.09 1.11v5.33" class="cls-3"/></svg>