<svg xmlns="http://www.w3.org/2000/svg" viewBox="0 0 26 40"><path fill="#737371" fill-rule="evenodd" d="M25.33 8.67a13 13 0 0 0-17.62-7.5 13.26 13.26 0 0 0-6.15 18.32C3.17 22.58 5 25.54 6.7 28.63c2 3.57 4.12 7.2 6.45 11.37a15.29 15.29 0 0 1 .76-1.45c3.77-6.68 7-12.59 10.42-19a13.86 13.86 0 0 0 1-10.85z"/><path fill="#eceded" fill-rule="evenodd" d="M13 31.31C6.26 25.42.86 19.82.86 13A12.21 12.21 0 0 1 13 .73 12.21 12.21 0 0 1 25.14 13c0 6.8-4.36 10.85-12.14 18.29z"/><path fill="#434345" d="M11.2 5.12a3.75 3.75 0 0 0-1 .18s.05 0 0 0-.2 0-.3.08.11-.08.06-.11a1.21 1.21 0 0 0-.25.08s.08 0 .1-.09a1 1 0 0 0-.4.21l.14-.12a1.54 1.54 0 0 0-.36.25 1 1 0 0 1 .32-.31 1.63 1.63 0 0 0-.51.36l-.07.06a.89.89 0 0 1 .15-.27.58.58 0 0 0-.26.56 2.38 2.38 0 0 1 0 .26 3.05 3.05 0 0 0-.32.13c-.44.17-.91.31-1.36.46a7.76 7.76 0 0 0-.85.3C6.88 7.14 7.42 7 8 7h.43a2.92 2.92 0 0 1 .78 0 4.62 4.62 0 0 0 .84-.16 5.07 5.07 0 0 1 .72-.24h.07c.02 0 0 0 0 0h.18a.61.61 0 0 1 .44.19 1 1 0 0 1 0 .52c0 .14 0 .29-.05.43a3.43 3.43 0 0 1 .06.34 1.78 1.78 0 0 0 .28.57c.13.22.32.39.43.62a10.12 10.12 0 0 1 .4 1v.36a.21.21 0 0 0 0 .13v.08c0 .06.06.11 0 .17s0 .07 0 .11a.75.75 0 0 1 0 .15v-.1c0-.03 0 .22.1.26s0 .16 0 .21v-.19c0-.06.06.09.08.13s0-.07 0-.1 0 .09.07.13a2.87 2.87 0 0 0 .05.31v-.26-.11.47a1.09 1.09 0 0 0 0-.44s0 .09.09.08 0 .14 0 .2a2.17 2.17 0 0 1 0-.26s0-.08 0 0a3.17 3.17 0 0 0 .06.35 2.43 2.43 0 0 0 0-.27c.05 0 .05-.06 0-.07s0-.07.06 0 0 .25.05.36a1.08 1.08 0 0 0 0-.31s.09.09.11 0 0 .15 0 .15a1.15 1.15 0 0 0 0 .26v-.21c0-.07.05.1.09.1s0-.13 0-.18 0 .07.07.1 0-.06 0-.08.05 0 0 0a.57.57 0 0 0 0 .18h.05c.05 0 .28.18.41.27a1.93 1.93 0 0 1 .45.57c.05.12.15.21.17.33.18.17.15.45.23.67a3.61 3.61 0 0 1 .18 1c.09.46 0 .93 0 1.39 0 .17 0 .35-.05.52v.17c0 .06-.07.36-.08.54s0 .22-.07.31a.52.52 0 0 1-.13.06.5.5 0 0 0-.19.1 1.86 1.86 0 0 0-.42.22 1.56 1.56 0 0 0-.4.41c0 .05-.1.06-.11.12a1.41 1.41 0 0 0 0 .54 3.23 3.23 0 0 0 .16.59l.09.15a6.46 6.46 0 0 0 .75.11h.36a3 3 0 0 1 .51-.09h1.17c.17 0 .35.08.5 0a1.71 1.71 0 0 1 .78-.25 1 1 0 0 0 0-.14 1.81 1.81 0 0 1 0-.4 1.75 1.75 0 0 1-.15-.34c0-.07-.08-.09-.1-.15a2.9 2.9 0 0 1-.16-.47c-.06-.05-.07-.13-.13-.17a.13.13 0 0 1-.06-.07.46.46 0 0 0-.26-.3c-.12-.06-.26-.1-.32-.24s-.07-.21-.18-.2a1.18 1.18 0 0 0-.31.08s-.07.05-.09 0 0-.27 0-.41c0-.22.05-.44.1-.66s0-.25.07-.36c.07-.33.11-.66.2-1a.76.76 0 0 0 .1-.59.1.1 0 0 1-.05 0 2.12 2.12 0 0 1 0-1l.24.1c.06 0 .11.07.14 0s.13.09.18.15.09.31.2.42.15.16.22.24.07.19.17.25.26 0 .36.12.19.07.29 0h.06c0 .05.09 0 .13 0 .08 0 0-.11 0-.16v-.69c0-.08.09 0 .14 0s.18 0 .15-.11a.18.18 0 0 0 .24-.13.52.52 0 0 0-.07-.27l-.16-.13h.12c.04 0 .24-.09.24-.21a1.23 1.23 0 0 0-.1-.42 3.17 3.17 0 0 0-.2-.51 5.8 5.8 0 0 0-.34-.52v-.07a.36.36 0 0 0-.09-.32c-.08-.11-.13-.23-.21-.34a2.62 2.62 0 0 1-.24-.34c-.15-.2-.3-.39-.43-.59a6.32 6.32 0 0 0-.09-.76 3.7 3.7 0 0 0-.28-.28 5.37 5.37 0 0 0-1.85-1.07c-.24-.07-.5-.08-.75-.14a1.57 1.57 0 0 0-.71.09 1.07 1.07 0 0 0-.27.16c-.11.11-.19.26-.31.36a.63.63 0 0 1-.72-.12.76.76 0 0 1-.23-.42v-.36a1.34 1.34 0 0 0 0-.84A2.56 2.56 0 0 0 12 6c-.11 0-.17-.14-.29-.14a.84.84 0 0 0-.38-.08c-.21-.08-.45 0-.65-.11h.23c.07 0 .14 0 .19-.05s-.05 0-.07 0h.07s.09 0 .07-.06.12 0 .15 0h.28c.13 0 0 0 0 0a.79.79 0 0 1 .39.16h.08c-.01 0 .2.1.3.13s.25.2.35.32.06.07.1.06-.08-.12-.13-.17.05 0 0 0-.1 0-.14-.08a2.74 2.74 0 0 0-.83-.47 2.32 2.32 0 0 0-.38-.06h-.14zm0 1.43zm1.45 3.91v.18a.37.37 0 0 1 0-.18zm2.72 2.27c.07 0 .14.08.22.06s.12.07.19.06.08.08.14.09.13.08.21.07a.9.9 0 0 0 .27.07c0 .08.08.12.06.2a.1.1 0 0 1 .06.11 5.21 5.21 0 0 1 0 .79 4.53 4.53 0 0 0-.08.74 4.71 4.71 0 0 1 0 .75c0 .09-.05.18-.08.27s0 .34-.07.51 0 0 0 .05a.28.28 0 0 0 0 .09c-.07.27-.11.55-.18.83 0 .09-.15.1-.22.16a.89.89 0 0 1-.26.09s-.07-.07-.06-.12a3.12 3.12 0 0 1 .05-.68c0-.2.06-.39.06-.59v-.25c0-.09.06-.43.08-.65a3.79 3.79 0 0 0 0-.82 5.52 5.52 0 0 1-.31-.8.43.43 0 0 1 0-.07 5.31 5.31 0 0 1-.1-.68c.06-.08 0-.19 0-.28z"/></svg>