<svg xmlns="http://www.w3.org/2000/svg" viewBox="0 0 26 40"><path fill="#FFBD00" fill-rule="evenodd" d="M25.33,8.67A13,13,0,0,0,7.71,1.17,13.26,13.26,0,0,0,1.56,19.49C3.17,22.58,5,25.54,6.7,28.63c2,3.57,4.12,7.2,6.45,11.37a15.29,15.29,0,0,1,.76-1.45c3.77-6.68,7-12.59,10.42-19a13.86,13.86,0,0,0,1-10.85Z"/><path fill="#F5FFC1" fill-rule="evenodd" d="M13,31.31h0C6.26,25.42.86,19.82.86,13A12.21,12.21,0,0,1,13,.73,12.21,12.21,0,0,1,25.14,13c0,6.8-4.36,10.85-12.14,18.29Z"/><path fill="#1c1c1c" d="M20.8 18l-.57-2.42a.46.46 0 0 0-.37-.35l-.67-.12-.68-6.41a.52.52 0 0 0-.13-.28l-1.15-1.13a.46.46 0 0 0-.61 0l-1.19.94v-.6L16.11 6a.48.48 0 0 0 0-.42l-.36-.6a.47.47 0 0 0-.52-.2L11 5.89a.47.47 0 0 0-.31.29l-.48 1.37a.44.44 0 0 0 0 .32l.79 2.24-.28 1.67-.93-.72.37-2.06a.45.45 0 0 0-.1-.37l-1.55-1.9a.47.47 0 0 0-.41-.17.48.48 0 0 0-.36.26l-1.87 3.82a.46.46 0 0 0 0 .23l.23 4-.34.23v.08L5.19 20a.48.48 0 0 0 .12.35.45.45 0 0 0 .34.15h14.7a.46.46 0 0 0 .46-.46v-2a.41.41 0 0 0-.01-.04zM6.14 19.6l.27-3.9 1.79-1.24a.48.48 0 0 0 .13-.65.46.46 0 0 0-.64-.12l-.76.52-.18-3.27 1.5-3.07L9.22 9l-.32 2-1.21.82a.47.47 0 0 0-.13.64.46.46 0 0 0 .39.21.49.49 0 0 0 .25-.08l1.11-.74 1.27 1-.38 2.25a.44.44 0 0 0 0 .2l1.11 4.3zm8 0h-1.9l-1.16-4.44.41-2.46.51-2.56a.4.4 0 0 0 0-.24l-.79-2.2.35-1 3.62-1 .06.1-.62 1.54a.47.47 0 0 0 0 .17V11l-.79-.56a.46.46 0 0 0-.64.12.48.48 0 0 0 .12.65l1.49 1 .79.55zm5.71 0h-4.74l1.28-6.89a.22.22 0 0 0 0-.08l-.83-.58V9.77l1.46-1.15.75.74.62 5.94-1-.19a.46.46 0 0 0-.54.38.47.47 0 0 0 .37.54l2.33.43.49 2.07v1.07z"/></svg>